<mxfile host="app.diagrams.net" modified="2023-04-28T11:47:24.553Z" agent="Mozilla/5.0 (Windows NT 10.0; Win64; x64; rv:109.0) Gecko/20100101 Firefox/112.0" etag="nPX1YdDuzBewF5_DkbXr" version="21.2.1" type="device">
  <diagram name="Page-1" id="5SdSSSAluMcNTr8EdPVz">
    <mxGraphModel dx="1050" dy="1365" grid="1" gridSize="10" guides="1" tooltips="1" connect="1" arrows="1" fold="1" page="1" pageScale="1" pageWidth="1169" pageHeight="827" math="0" shadow="0">
      <root>
        <mxCell id="0" />
        <mxCell id="1" parent="0" />
        <mxCell id="9ysJkB-p09xtjBn3U5HX-10" value="" style="group;fillColor=#e1d5e7;strokeColor=#9673a6;fillStyle=auto;" vertex="1" connectable="0" parent="1">
          <mxGeometry x="295" y="20" width="210" height="300" as="geometry" />
        </mxCell>
        <mxCell id="9ysJkB-p09xtjBn3U5HX-9" value="" style="rounded=0;whiteSpace=wrap;html=1;fillColor=#D4E1F5;" vertex="1" parent="9ysJkB-p09xtjBn3U5HX-10">
          <mxGeometry width="210" height="300" as="geometry" />
        </mxCell>
        <mxCell id="9ysJkB-p09xtjBn3U5HX-4" value="Feature Scaling" style="rounded=0;whiteSpace=wrap;html=1;fillColor=#fff2cc;strokeColor=#d6b656;" vertex="1" parent="9ysJkB-p09xtjBn3U5HX-10">
          <mxGeometry x="45" y="170" width="120" height="60" as="geometry" />
        </mxCell>
        <mxCell id="9ysJkB-p09xtjBn3U5HX-3" value="Feature Extaction" style="rounded=0;whiteSpace=wrap;html=1;fillColor=#fff2cc;strokeColor=#d6b656;" vertex="1" parent="9ysJkB-p09xtjBn3U5HX-10">
          <mxGeometry x="45" y="70" width="120" height="60" as="geometry" />
        </mxCell>
        <mxCell id="9ysJkB-p09xtjBn3U5HX-60" value="Feature Pipeline" style="text;html=1;strokeColor=none;fillColor=none;align=center;verticalAlign=middle;whiteSpace=wrap;rounded=0;" vertex="1" parent="9ysJkB-p09xtjBn3U5HX-10">
          <mxGeometry x="51.25" y="270" width="107.5" height="30" as="geometry" />
        </mxCell>
        <mxCell id="9ysJkB-p09xtjBn3U5HX-12" value="" style="group;fillColor=#D4E1F5;strokeColor=#6c8ebf;" vertex="1" connectable="0" parent="1">
          <mxGeometry x="10" y="20" width="210" height="300" as="geometry" />
        </mxCell>
        <mxCell id="9ysJkB-p09xtjBn3U5HX-8" value="" style="rounded=0;whiteSpace=wrap;html=1;gradientColor=none;fillColor=none;" vertex="1" parent="9ysJkB-p09xtjBn3U5HX-12">
          <mxGeometry width="210" height="300" as="geometry" />
        </mxCell>
        <mxCell id="9ysJkB-p09xtjBn3U5HX-1" value="Data Collection" style="rounded=0;whiteSpace=wrap;html=1;fillColor=#fff2cc;strokeColor=#d6b656;" vertex="1" parent="9ysJkB-p09xtjBn3U5HX-12">
          <mxGeometry x="45" y="70" width="120" height="60" as="geometry" />
        </mxCell>
        <mxCell id="9ysJkB-p09xtjBn3U5HX-2" value="Data Preprocessing" style="rounded=0;whiteSpace=wrap;html=1;fillColor=#fff2cc;strokeColor=#d6b656;" vertex="1" parent="9ysJkB-p09xtjBn3U5HX-12">
          <mxGeometry x="45" y="170" width="120" height="60" as="geometry" />
        </mxCell>
        <mxCell id="9ysJkB-p09xtjBn3U5HX-57" value="Data Pipeline" style="text;html=1;strokeColor=none;fillColor=none;align=center;verticalAlign=middle;whiteSpace=wrap;rounded=0;" vertex="1" parent="9ysJkB-p09xtjBn3U5HX-12">
          <mxGeometry x="62.5" y="270" width="85" height="30" as="geometry" />
        </mxCell>
        <mxCell id="9ysJkB-p09xtjBn3U5HX-48" style="edgeStyle=orthogonalEdgeStyle;rounded=0;orthogonalLoop=1;jettySize=auto;html=1;exitX=1;exitY=0.5;exitDx=0;exitDy=0;entryX=0;entryY=0.5;entryDx=0;entryDy=0;" edge="1" parent="1" source="9ysJkB-p09xtjBn3U5HX-13" target="9ysJkB-p09xtjBn3U5HX-14">
          <mxGeometry relative="1" as="geometry" />
        </mxCell>
        <mxCell id="9ysJkB-p09xtjBn3U5HX-49" style="edgeStyle=orthogonalEdgeStyle;rounded=0;orthogonalLoop=1;jettySize=auto;html=1;entryX=0;entryY=0.5;entryDx=0;entryDy=0;" edge="1" parent="1" source="9ysJkB-p09xtjBn3U5HX-13" target="9ysJkB-p09xtjBn3U5HX-15">
          <mxGeometry relative="1" as="geometry" />
        </mxCell>
        <mxCell id="9ysJkB-p09xtjBn3U5HX-13" value="Obtained Feature Dataset" style="rounded=0;whiteSpace=wrap;html=1;fillColor=#fff2cc;strokeColor=#d6b656;" vertex="1" parent="1">
          <mxGeometry x="580" y="140" width="120" height="60" as="geometry" />
        </mxCell>
        <mxCell id="9ysJkB-p09xtjBn3U5HX-14" value="Train Split" style="rounded=0;whiteSpace=wrap;html=1;fillColor=#fff2cc;strokeColor=#d6b656;" vertex="1" parent="1">
          <mxGeometry x="760" y="55" width="120" height="60" as="geometry" />
        </mxCell>
        <mxCell id="9ysJkB-p09xtjBn3U5HX-15" value="Test Split" style="rounded=0;whiteSpace=wrap;html=1;fillColor=#fff2cc;strokeColor=#d6b656;" vertex="1" parent="1">
          <mxGeometry x="760" y="210" width="120" height="60" as="geometry" />
        </mxCell>
        <mxCell id="9ysJkB-p09xtjBn3U5HX-16" value="" style="rounded=0;whiteSpace=wrap;html=1;fillColor=#f5f5f5;fontColor=#333333;strokeColor=#666666;" vertex="1" parent="1">
          <mxGeometry x="950" y="-100" width="750" height="750" as="geometry" />
        </mxCell>
        <mxCell id="9ysJkB-p09xtjBn3U5HX-51" style="edgeStyle=orthogonalEdgeStyle;rounded=0;orthogonalLoop=1;jettySize=auto;html=1;exitX=1;exitY=0.5;exitDx=0;exitDy=0;entryX=0;entryY=0.5;entryDx=0;entryDy=0;" edge="1" parent="1" source="9ysJkB-p09xtjBn3U5HX-15" target="9ysJkB-p09xtjBn3U5HX-30">
          <mxGeometry relative="1" as="geometry">
            <Array as="points">
              <mxPoint x="930" y="240" />
              <mxPoint x="930" y="455" />
            </Array>
          </mxGeometry>
        </mxCell>
        <mxCell id="9ysJkB-p09xtjBn3U5HX-50" style="edgeStyle=orthogonalEdgeStyle;rounded=0;orthogonalLoop=1;jettySize=auto;html=1;exitX=1;exitY=0.5;exitDx=0;exitDy=0;" edge="1" parent="1" source="9ysJkB-p09xtjBn3U5HX-14" target="9ysJkB-p09xtjBn3U5HX-18">
          <mxGeometry relative="1" as="geometry" />
        </mxCell>
        <mxCell id="9ysJkB-p09xtjBn3U5HX-17" value="" style="endArrow=none;dashed=1;html=1;rounded=0;exitX=0;exitY=0.5;exitDx=0;exitDy=0;entryX=1;entryY=0.5;entryDx=0;entryDy=0;" edge="1" parent="1" source="9ysJkB-p09xtjBn3U5HX-16" target="9ysJkB-p09xtjBn3U5HX-16">
          <mxGeometry width="50" height="50" relative="1" as="geometry">
            <mxPoint x="1010" y="240" as="sourcePoint" />
            <mxPoint x="1060" y="190" as="targetPoint" />
          </mxGeometry>
        </mxCell>
        <mxCell id="9ysJkB-p09xtjBn3U5HX-26" value="Trained Model" style="rounded=0;whiteSpace=wrap;html=1;fillColor=#fff2cc;strokeColor=#d6b656;" vertex="1" parent="1">
          <mxGeometry x="1460" y="60" width="120" height="50" as="geometry" />
        </mxCell>
        <mxCell id="9ysJkB-p09xtjBn3U5HX-56" style="edgeStyle=orthogonalEdgeStyle;rounded=0;orthogonalLoop=1;jettySize=auto;html=1;exitX=1;exitY=0.5;exitDx=0;exitDy=0;entryX=0;entryY=0.5;entryDx=0;entryDy=0;" edge="1" parent="1" source="9ysJkB-p09xtjBn3U5HX-27" target="9ysJkB-p09xtjBn3U5HX-26">
          <mxGeometry relative="1" as="geometry" />
        </mxCell>
        <mxCell id="9ysJkB-p09xtjBn3U5HX-27" value="Soft Voting" style="rounded=0;whiteSpace=wrap;html=1;fillColor=#fff2cc;strokeColor=#d6b656;" vertex="1" parent="1">
          <mxGeometry x="1260" y="60" width="120" height="50" as="geometry" />
        </mxCell>
        <mxCell id="9ysJkB-p09xtjBn3U5HX-28" value="Model Training" style="text;html=1;strokeColor=default;fillColor=none;align=center;verticalAlign=middle;whiteSpace=wrap;rounded=0;" vertex="1" parent="1">
          <mxGeometry x="950" y="-100" width="110" height="20" as="geometry" />
        </mxCell>
        <mxCell id="9ysJkB-p09xtjBn3U5HX-53" style="edgeStyle=orthogonalEdgeStyle;rounded=0;orthogonalLoop=1;jettySize=auto;html=1;exitX=1;exitY=0.5;exitDx=0;exitDy=0;" edge="1" parent="1" source="9ysJkB-p09xtjBn3U5HX-30" target="9ysJkB-p09xtjBn3U5HX-31">
          <mxGeometry relative="1" as="geometry" />
        </mxCell>
        <mxCell id="9ysJkB-p09xtjBn3U5HX-30" value="Trained Model" style="rounded=0;whiteSpace=wrap;html=1;fillColor=#fff2cc;strokeColor=#d6b656;" vertex="1" parent="1">
          <mxGeometry x="1049" y="430" width="120" height="50" as="geometry" />
        </mxCell>
        <mxCell id="9ysJkB-p09xtjBn3U5HX-54" style="edgeStyle=orthogonalEdgeStyle;rounded=0;orthogonalLoop=1;jettySize=auto;html=1;exitX=1;exitY=0.5;exitDx=0;exitDy=0;" edge="1" parent="1" source="9ysJkB-p09xtjBn3U5HX-31" target="9ysJkB-p09xtjBn3U5HX-33">
          <mxGeometry relative="1" as="geometry" />
        </mxCell>
        <mxCell id="9ysJkB-p09xtjBn3U5HX-31" value="Prediction" style="rounded=0;whiteSpace=wrap;html=1;fillColor=#fff2cc;strokeColor=#d6b656;" vertex="1" parent="1">
          <mxGeometry x="1265" y="430" width="120" height="50" as="geometry" />
        </mxCell>
        <mxCell id="9ysJkB-p09xtjBn3U5HX-43" value="" style="group;fillColor=#dae8fc;strokeColor=#6c8ebf;" vertex="1" connectable="0" parent="1">
          <mxGeometry x="1520" y="300" width="150" height="310" as="geometry" />
        </mxCell>
        <mxCell id="9ysJkB-p09xtjBn3U5HX-33" value="" style="rounded=0;whiteSpace=wrap;html=1;fillColor=#dae8fc;strokeColor=#6c8ebf;" vertex="1" parent="9ysJkB-p09xtjBn3U5HX-43">
          <mxGeometry width="150" height="310" as="geometry" />
        </mxCell>
        <mxCell id="9ysJkB-p09xtjBn3U5HX-34" value="Accuracy" style="rounded=0;whiteSpace=wrap;html=1;fillColor=#fff2cc;strokeColor=#d6b656;" vertex="1" parent="9ysJkB-p09xtjBn3U5HX-43">
          <mxGeometry x="22.5" y="10" width="105" height="40" as="geometry" />
        </mxCell>
        <mxCell id="9ysJkB-p09xtjBn3U5HX-35" value="Precision" style="rounded=0;whiteSpace=wrap;html=1;fillColor=#fff2cc;strokeColor=#d6b656;" vertex="1" parent="9ysJkB-p09xtjBn3U5HX-43">
          <mxGeometry x="22.5" y="60" width="105" height="40" as="geometry" />
        </mxCell>
        <mxCell id="9ysJkB-p09xtjBn3U5HX-36" value="Recall" style="rounded=0;whiteSpace=wrap;html=1;fillColor=#fff2cc;strokeColor=#d6b656;" vertex="1" parent="9ysJkB-p09xtjBn3U5HX-43">
          <mxGeometry x="22.5" y="110" width="105" height="40" as="geometry" />
        </mxCell>
        <mxCell id="9ysJkB-p09xtjBn3U5HX-37" value="F1" style="rounded=0;whiteSpace=wrap;html=1;fillColor=#fff2cc;strokeColor=#d6b656;" vertex="1" parent="9ysJkB-p09xtjBn3U5HX-43">
          <mxGeometry x="22.5" y="160" width="105" height="40" as="geometry" />
        </mxCell>
        <mxCell id="9ysJkB-p09xtjBn3U5HX-41" value="AUC ROC" style="rounded=0;whiteSpace=wrap;html=1;fillColor=#fff2cc;strokeColor=#d6b656;" vertex="1" parent="9ysJkB-p09xtjBn3U5HX-43">
          <mxGeometry x="22.5" y="260" width="105" height="40" as="geometry" />
        </mxCell>
        <mxCell id="9ysJkB-p09xtjBn3U5HX-42" value="Confusion Matrix" style="rounded=0;whiteSpace=wrap;html=1;fillColor=#fff2cc;strokeColor=#d6b656;" vertex="1" parent="9ysJkB-p09xtjBn3U5HX-43">
          <mxGeometry x="22.5" y="210" width="105" height="40" as="geometry" />
        </mxCell>
        <mxCell id="9ysJkB-p09xtjBn3U5HX-44" value="" style="group" vertex="1" connectable="0" parent="1">
          <mxGeometry x="1050" y="-20" width="150" height="230" as="geometry" />
        </mxCell>
        <mxCell id="9ysJkB-p09xtjBn3U5HX-18" value="" style="rounded=0;whiteSpace=wrap;html=1;fillColor=#dae8fc;strokeColor=#6c8ebf;" vertex="1" parent="9ysJkB-p09xtjBn3U5HX-44">
          <mxGeometry width="150" height="210" as="geometry" />
        </mxCell>
        <mxCell id="9ysJkB-p09xtjBn3U5HX-19" value="SVM" style="rounded=0;whiteSpace=wrap;html=1;fillColor=#fff2cc;strokeColor=#d6b656;" vertex="1" parent="9ysJkB-p09xtjBn3U5HX-44">
          <mxGeometry x="24" y="10" width="105" height="40" as="geometry" />
        </mxCell>
        <mxCell id="9ysJkB-p09xtjBn3U5HX-20" value="Random Forest" style="rounded=0;whiteSpace=wrap;html=1;fillColor=#fff2cc;strokeColor=#d6b656;" vertex="1" parent="9ysJkB-p09xtjBn3U5HX-44">
          <mxGeometry x="25" y="60" width="105" height="40" as="geometry" />
        </mxCell>
        <mxCell id="9ysJkB-p09xtjBn3U5HX-21" value="AdaBoost" style="rounded=0;whiteSpace=wrap;html=1;fillColor=#fff2cc;strokeColor=#d6b656;" vertex="1" parent="9ysJkB-p09xtjBn3U5HX-44">
          <mxGeometry x="25" y="110" width="105" height="40" as="geometry" />
        </mxCell>
        <mxCell id="9ysJkB-p09xtjBn3U5HX-22" value="ANN" style="rounded=0;whiteSpace=wrap;html=1;fillColor=#fff2cc;strokeColor=#d6b656;" vertex="1" parent="9ysJkB-p09xtjBn3U5HX-44">
          <mxGeometry x="25" y="160" width="105" height="40" as="geometry" />
        </mxCell>
        <mxCell id="9ysJkB-p09xtjBn3U5HX-24" value="Model Ensemble" style="text;html=1;strokeColor=none;fillColor=none;align=center;verticalAlign=middle;whiteSpace=wrap;rounded=0;" vertex="1" parent="9ysJkB-p09xtjBn3U5HX-44">
          <mxGeometry x="30" y="210" width="95" height="20" as="geometry" />
        </mxCell>
        <mxCell id="9ysJkB-p09xtjBn3U5HX-45" value="Evaluation Metric" style="text;html=1;strokeColor=none;fillColor=none;align=center;verticalAlign=middle;whiteSpace=wrap;rounded=0;" vertex="1" parent="1">
          <mxGeometry x="1547.5" y="610" width="95" height="20" as="geometry" />
        </mxCell>
        <mxCell id="9ysJkB-p09xtjBn3U5HX-46" style="edgeStyle=orthogonalEdgeStyle;rounded=0;orthogonalLoop=1;jettySize=auto;html=1;exitX=1;exitY=0.5;exitDx=0;exitDy=0;entryX=0;entryY=0.5;entryDx=0;entryDy=0;" edge="1" parent="1" source="9ysJkB-p09xtjBn3U5HX-8" target="9ysJkB-p09xtjBn3U5HX-9">
          <mxGeometry relative="1" as="geometry" />
        </mxCell>
        <mxCell id="9ysJkB-p09xtjBn3U5HX-47" style="edgeStyle=orthogonalEdgeStyle;rounded=0;orthogonalLoop=1;jettySize=auto;html=1;exitX=1;exitY=0.5;exitDx=0;exitDy=0;entryX=0;entryY=0.5;entryDx=0;entryDy=0;" edge="1" parent="1" source="9ysJkB-p09xtjBn3U5HX-9" target="9ysJkB-p09xtjBn3U5HX-13">
          <mxGeometry relative="1" as="geometry" />
        </mxCell>
        <mxCell id="9ysJkB-p09xtjBn3U5HX-52" value="Model Evaluation" style="text;html=1;strokeColor=default;fillColor=none;align=center;verticalAlign=middle;whiteSpace=wrap;rounded=0;" vertex="1" parent="1">
          <mxGeometry x="950" y="630" width="110" height="20" as="geometry" />
        </mxCell>
        <mxCell id="9ysJkB-p09xtjBn3U5HX-55" style="edgeStyle=orthogonalEdgeStyle;rounded=0;orthogonalLoop=1;jettySize=auto;html=1;exitX=1;exitY=0.5;exitDx=0;exitDy=0;entryX=0;entryY=0.5;entryDx=0;entryDy=0;" edge="1" parent="1" source="9ysJkB-p09xtjBn3U5HX-18" target="9ysJkB-p09xtjBn3U5HX-27">
          <mxGeometry relative="1" as="geometry" />
        </mxCell>
      </root>
    </mxGraphModel>
  </diagram>
</mxfile>
